<?xml version="1.0" standalone="no"?>
<!DOCTYPE svg PUBLIC "-//W3C//DTD SVG 20010904//EN"
 "http://www.w3.org/TR/2001/REC-SVG-20010904/DTD/svg10.dtd">
<svg version="1.0" xmlns="http://www.w3.org/2000/svg"
 width="700.000000pt" height="700.000000pt" viewBox="0 0 700.000000 700.000000"
 preserveAspectRatio="xMidYMid meet">
<metadata>
Created by potrace 1.14, written by Peter Selinger 2001-2017
</metadata>
<g transform="translate(0.000000,700.000000) scale(0.100000,-0.100000)"
fill="#000000" stroke="none">
<path d="M1355 5053 c-265 -40 -510 -140 -714 -292 -97 -72 -237 -205 -292
-278 -24 -32 -46 -60 -49 -63 -18 -17 -108 -169 -145 -245 -41 -85 -97 -238
-109 -297 -3 -16 -9 -40 -12 -55 -35 -164 -40 -433 -10 -591 61 -329 201 -597
431 -828 93 -94 197 -179 280 -231 62 -39 274 -143 300 -147 6 -1 15 -4 20 -8
14 -8 250 -66 305 -73 76 -11 321 -14 390 -4 36 5 83 12 104 15 216 31 506
160 683 303 66 53 313 270 359 315 12 12 34 32 50 45 24 20 152 133 200 176 6
6 44 39 84 75 40 36 78 70 84 75 6 6 67 60 136 120 69 60 143 126 165 146 61
56 243 217 319 284 38 33 74 65 80 71 6 5 74 66 151 134 77 68 142 126 145
129 3 3 59 53 125 111 66 57 122 107 125 110 3 3 43 39 89 80 47 41 96 86 110
99 374 350 990 338 1356 -26 257 -255 355 -608 265 -953 -98 -379 -427 -672
-815 -726 -149 -21 -321 -4 -463 46 -155 54 -284 140 -451 300 -14 14 -78 70
-141 125 -63 55 -118 104 -122 110 -4 6 -14 2 -26 -10 -10 -11 -49 -47 -87
-80 -38 -33 -78 -69 -91 -80 -39 -35 -87 -79 -162 -144 -63 -56 -88 -90 -64
-91 4 0 25 -17 48 -38 37 -33 105 -94 233 -207 25 -22 70 -62 99 -90 66 -62
227 -183 284 -214 133 -72 279 -135 365 -156 173 -44 271 -57 433 -60 285 -3
594 84 840 239 78 49 65 39 175 129 276 226 464 542 535 902 32 160 34 440 6
575 -3 14 -8 34 -10 45 -50 247 -187 521 -356 709 -146 163 -300 279 -490 372
-52 25 -103 50 -112 55 -10 5 -26 9 -36 9 -10 0 -22 4 -27 8 -6 5 -35 16 -65
25 -159 48 -309 66 -495 62 -137 -3 -169 -6 -231 -20 -12 -3 -38 -7 -60 -11
-125 -20 -337 -103 -481 -188 -95 -57 -174 -119 -354 -281 -74 -66 -149 -133
-168 -150 -40 -35 -138 -122 -196 -174 -22 -20 -141 -126 -265 -236 -124 -109
-266 -235 -315 -279 -50 -45 -124 -110 -165 -146 -40 -36 -78 -69 -84 -75 -6
-5 -49 -44 -96 -85 -47 -41 -87 -77 -90 -80 -3 -3 -41 -37 -85 -75 -44 -39
-84 -75 -90 -81 -5 -5 -46 -41 -89 -80 -44 -38 -87 -76 -96 -84 -17 -16 -127
-113 -170 -150 -14 -12 -43 -38 -65 -59 -33 -30 -97 -83 -170 -139 -36 -28
-203 -102 -272 -121 -257 -69 -506 -40 -743 86 -47 25 -87 48 -90 52 -3 3 -23
19 -45 36 -157 117 -293 323 -345 523 -142 549 204 1105 758 1217 131 27 314
24 427 -6 22 -6 47 -12 55 -14 56 -11 229 -97 297 -148 27 -19 149 -126 187
-163 6 -5 49 -44 96 -84 104 -92 149 -132 165 -147 9 -8 20 -3 46 21 19 17 92
83 164 146 71 63 147 131 168 150 21 19 45 39 53 43 24 14 15 30 -47 82 -32
28 -76 66 -97 85 -21 19 -70 62 -107 95 -38 33 -105 93 -150 134 -165 151
-435 303 -615 347 -8 2 -39 10 -69 18 -30 8 -75 18 -100 21 -25 3 -73 10 -106
14 -89 13 -288 10 -390 -6z"/>
</g>
</svg>
